<?xml version="1.0" encoding="UTF-8"?>
<svg id="Layer_2" xmlns="http://www.w3.org/2000/svg" viewBox="0 0 75.86 74.59">
  <path d="M37.96,0C16.97,0,0,17.09,0,38.24c0,16.9,10.87,31.21,25.96,36.28,1.89.38,2.58-.82,2.58-1.84,0-.89-.06-3.93-.06-7.09-10.56,2.28-12.76-4.56-12.76-4.56-1.7-4.43-4.21-5.57-4.21-5.57-3.46-2.34.25-2.34.25-2.34,3.83.25,5.85,3.93,5.85,3.93,3.39,5.82,8.86,4.18,11.06,3.17.31-2.47,1.32-4.18,2.39-5.13-8.42-.89-17.28-4.18-17.28-18.87,0-4.18,1.51-7.6,3.9-10.26-.38-.95-1.7-4.88.38-10.13,0,0,3.21-1.01,10.43,3.93,3.09-.84,6.29-1.26,9.49-1.27,3.21,0,6.47.44,9.49,1.27,7.23-4.94,10.43-3.93,10.43-3.93,2.07,5.26.75,9.18.38,10.13,2.45,2.66,3.9,6.08,3.9,10.26,0,14.69-8.86,17.92-17.35,18.87,1.38,1.2,2.58,3.48,2.58,7.09,0,5.13-.06,9.24-.06,10.51,0,1.01.69,2.22,2.58,1.84,15.08-5.07,25.96-19.38,25.96-36.28C75.92,17.09,58.89,0,37.96,0Z"/>
</svg>