<?xml version="1.0" encoding="UTF-8"?>
<svg xmlns="http://www.w3.org/2000/svg" viewBox="0 0 80.28 80.22">
  <path d="M40.13.02c11.39,0,22.79.03,34.18-.02,3.04-.01,5.49,2.16,5.9,4.83.04.29.07.6.07.89,0,22.93,0,45.87,0,68.8,0,3.04-2.42,5.56-5.45,5.69-.2,0-.4,0-.6,0-22.74,0-45.48,0-68.22,0-2.85,0-5.01-1.53-5.76-4.12-.16-.54-.24-1.13-.24-1.69C0,51.55,0,28.69,0,5.83,0,2.58,2.45.07,5.72.03c2.75-.03,5.51,0,8.26,0,8.72,0,17.43,0,26.15,0ZM42.81,35.24c0-1.6-.03-2.97.01-4.35.02-.67-.17-.91-.88-.91-3.28.04-6.56.04-9.84,0-.78-.01-.96.24-.96.98.02,12.19.02,24.38,0,36.57,0,.75.19,1.01.97,1,3.41-.04,6.81-.03,10.22,0,.76,0,.97-.22.97-.98-.03-6.13-.03-12.27,0-18.4,0-1.27.09-2.55.31-3.8.46-2.59,1.64-4.7,4.42-5.39.86-.21,1.78-.25,2.67-.24,2.77.03,4.58,1.37,5.2,4.06.36,1.57.5,3.21.52,4.82.06,6.31.03,12.62.01,18.93,0,.73.19,1.02.97,1.01,3.41-.04,6.81-.03,10.22,0,.73,0,.93-.23.93-.95-.02-6.78-.02-13.57,0-20.35,0-2.78-.14-5.55-.78-8.26-.87-3.71-2.58-6.87-6.23-8.51-3.62-1.62-7.43-1.94-11.27-.94-3.16.83-5.56,2.76-7.44,5.71ZM23.88,49.2c0-6.11,0-12.21.01-18.32,0-.68-.19-.9-.89-.9-3.45.03-6.91.03-10.36,0-.68,0-.89.18-.89.88.02,12.26.02,24.52,0,36.79,0,.73.26.88.91.88,3.4-.02,6.81,0,10.21-.01,1,0,1,0,1-1,0-6.11,0-12.21,0-18.32ZM17.83,24.86c3.87,0,6.96-3.08,6.96-6.93,0-3.89-3.1-7-6.99-7-3.88,0-6.96,3.1-6.95,7.02,0,3.85,3.1,6.91,6.97,6.91Z"/>
</svg>