<?xml version="1.0" encoding="UTF-8"?>
<svg id="Layer_2" xmlns="http://www.w3.org/2000/svg" viewBox="0 0 471.77 458.87">
  <defs>
    <style>
      .cls-1 {
        fill: #f15822;
      }
    </style>
  </defs>
  <g id="Web">
    <path class="cls-1" d="M79.76,446.31c-13.35-8.37-20.02-19.57-20.02-33.6,0-8.15,1.36-16.97,4.07-26.47l8.15-25.12h-26.47c-14.49,0-25.69-3.05-33.6-9.16-7.92-6.11-11.88-14.14-11.88-24.1,0-6.33,1.58-14.48,4.75-24.44,3.16-9.95,7.47-17.42,12.9-22.4,4.07-4.52,9.05-7.69,14.93-9.5,5.88-1.8,14.93-2.72,27.15-2.72h41.41l23.76-78.06h-25.79c-14.49,0-25.69-2.94-33.6-8.82-7.92-5.88-11.88-13.8-11.88-23.76,0-6.33,1.58-14.59,4.75-24.78,3.16-10.18,7.47-17.75,12.9-22.74,4.07-4.52,9.05-7.69,14.93-9.5,5.88-1.8,14.93-2.71,27.15-2.71h40.73L183.28,4.75c1.8-3.16,5.88-4.75,12.22-4.75,14.02,0,27.71,4.31,41.07,12.9,13.34,8.6,20.02,19.69,20.02,33.26,0,8.15-1.36,16.97-4.07,26.47l-8.15,25.79h65.84l29.19-93.67c.9-3.16,4.97-4.75,12.22-4.75,14.02,0,27.71,4.31,41.07,12.9,13.34,8.6,20.03,19.69,20.03,33.26,0,6.34-1.59,15.17-4.75,26.47l-7.47,25.79h26.47c14.48,0,25.56,3.05,33.26,9.16,7.69,6.11,11.54,14.15,11.54,24.1,0,6.79-1.47,15.05-4.41,24.78-2.95,9.74-7.13,17.09-12.56,22.06-4.53,4.53-9.62,7.7-15.27,9.5-5.66,1.81-14.59,2.71-26.81,2.71h-41.41l-24.44,78.06h26.47c14.48,0,25.56,2.95,33.26,8.82,7.69,5.89,11.54,13.81,11.54,23.76,0,6.79-1.47,15.17-4.41,25.12-2.95,9.96-7.13,17.43-12.56,22.4-4.07,4.53-9.16,7.7-15.27,9.5-6.11,1.81-15.05,2.72-26.81,2.72h-41.41l-28.51,93c-1.36,3.16-5.43,4.75-12.22,4.75-14.03,0-27.72-4.19-41.07-12.56-13.35-8.37-20.03-19.57-20.03-33.6,0-8.15,1.36-16.97,4.07-26.47l7.47-25.12h-65.17l-29.19,93c-1.36,3.16-5.43,4.75-12.22,4.75-14.03,0-27.72-4.19-41.07-12.56ZM260.66,270.16l25.12-80.78h-74.67l-24.44,80.78h73.99Z"/>
  </g>
</svg>